<?xml version="1.0" encoding="UTF-8"?>
<svg width="295px" height="295px" viewBox="0 0 295 295" version="1.1" xmlns="http://www.w3.org/2000/svg" xmlns:xlink="http://www.w3.org/1999/xlink">
    <title>Group 3</title>
    <g id="Page-1" stroke="none" stroke-width="1" fill="none" fill-rule="evenodd">
        <g id="Group-3" transform="translate(0.000000, 0.000000)">
            <g id="playicon" fill="#000000" fill-rule="nonzero">
                <path d="M278.527,79.946 C268.203,59.923 253.147,42.242 234.989,28.814 C232.324,26.844 228.568,27.407 226.597,30.071 C224.626,32.735 225.19,36.492 227.854,38.463 C244.541,50.803 258.375,67.049 267.862,85.446 C277.802,104.723 282.842,125.574 282.842,147.422 C282.842,222.093 222.092,282.843 147.421,282.843 C72.75,282.843 12,222.093 12,147.421 C12,72.749 72.75,12 147.421,12 C150.734,12 153.421,9.313 153.421,6 C153.421,2.687 150.734,0 147.421,0 C66.133,0 0,66.133 0,147.421 C0,228.709 66.133,294.842 147.421,294.842 C228.709,294.842 294.842,228.709 294.842,147.421 C294.842,123.977 289.201,100.645 278.527,79.946 Z" id="Path"></path>
            </g>
            <g id="Group-2" transform="translate(74.500000, 117.000000)" stroke="#000000" stroke-linecap="round" stroke-linejoin="round" stroke-width="12">
                <g id="Group">
                    <line x1="-1.03216047e-16" y1="0.5" x2="59.5" y2="0.5" id="Line"></line>
                    <path d="M0,30.5 C48.6062049,30.5 82.3829799,30.5 101.330325,30.5" id="Line"></path>
                    <path d="M55.8789162,83.7481793 C68.4328367,83.7481793 77.1566395,83.7481793 82.0503247,83.7481793 C86.9440099,83.7481793 91.220207,83.7481793 94.8789162,83.7481793" id="Line" transform="translate(75.378916, 83.748179) rotate(48.000000) translate(-75.378916, -83.748179) "></path>
                    <path d="M77.4142136,69.5857864 C103.165845,69.5857864 121.060825,69.5857864 131.099154,69.5857864 C141.137483,69.5857864 149.909169,69.5857864 157.414214,69.5857864" id="Line" transform="translate(117.414214, 69.585786) rotate(135.000000) translate(-117.414214, -69.585786) "></path>
                </g>
            </g>
        </g>
    </g>
</svg>