<?xml version="1.0" encoding="UTF-8"?>
<svg width="284px" height="284px" viewBox="0 0 284 284" version="1.1" xmlns="http://www.w3.org/2000/svg" xmlns:xlink="http://www.w3.org/1999/xlink">
    <title>Group</title>
    <g id="Page-1" stroke="none" stroke-width="1" fill="none" fill-rule="evenodd">
        <g id="Group" transform="translate(5.000000, 5.000000)">
            <path d="M137,274 C212.663011,274 274,212.663011 274,137 C274,61.3369893 212.663011,0 137,0 C61.3369893,0 0,61.3369893 0,137 C0,172.059431 13.1693683,204.042991 34.8311527,228.273728" id="Oval" stroke="#000000" stroke-width="9" stroke-linecap="round" transform="translate(137.000000, 137.000000) rotate(180.000000) translate(-137.000000, -137.000000) "></path>
            <path d="M99.035,67.7840548 C97.159,68.8510548 96,70.8430548 96,73.0000548 L96,204.674055 C96,207.988055 98.687,210.674055 102,210.674055 C105.313,210.674055 108,207.988055 108,204.674055 L108,83.5550548 L196.833,136.438055 L131.509,178.525055 C128.724,180.320055 127.92,184.033055 129.715,186.818055 C131.511,189.604055 135.223,190.408055 138.009,188.612055 L211.474,141.279055 C213.22,140.154055 214.26,138.206055 214.223955,136.129055 C214.186,134.052055 213.078,132.142055 211.293,131.079055 L105.069,67.8440548 C103.213,66.7410548 100.911,66.7170548 99.035,67.7840548 Z" id="Path" fill="#000000" fill-rule="nonzero"></path>
        </g>
    </g>
</svg>